# xmcd
#
# Track frame offsets:
#	150
#	16964
#	31910
#	45748
#	63268
#	78974
#	93307
#	108665
#	122964
#	139184
#	158871
#	175449
#	189493
#	204258
#	220140
#	233974
#	250302
#	266375
#	287023
#	300689
#
# Disc length: 4212 seconds
#
# Revision: 0
# Processed by: cddbd v1.5.2PL0 Copyright (c) Steve Scherf et al.
# Submitted via: audiograbber 1.83.01
#
DISCID=19107214
DTITLE=Various Artist - Erste Sahne Schlager
DYEAR=2003
DGENRE=Schlager
TTITLE0=Rosanna Rocci and Michael Morgan - Io Vivo per te
TTITLE1=Wind - Weil ich verliebt in dich bin
TTITLE2=Ireen Sheer - Ein Kuss von dir
TTITLE3=Brunner and Brunner - Schenk mir diese eine Nacht
TTITLE4=Leonard - Rhytmus der Nacht
TTITLE5=Andy Borg - Wie kanst du mich bloß lieben
TTITLE6=Fernando Expres - Casanova
TTITLE7=Frans Bauer - Te Querio
TTITLE8=Die Paldauer - Düsseldorfer girl
TTITLE9=Peggy March - Was uns einmal wichtig war im Leben
TTITLE10=Rosanna Rocci and Andreas - Ciao mio Amore
TTITLE11=Simone - Solang wir leben
TTITLE12=G.G. Anderson - Nein heißt ja
TTITLE13=Francine Jordi - Wunschlos glücklich
TTITLE14=Bernhard Brink - Vorbei ist vorbei
TTITLE15=Carriere - Mein Leben lang nur von dir geträumt
TTITLE16=Uta Bresan - Ich hab den Sommer bestellt
TTITLE17=Petra Frey and Oliver Haidt - Titanic Teil II
TTITLE18=Wind - Sonne, Mond und leuchtende Sterne
TTITLE19=Ireen Sheer - Farewell and Goodbye
EXTD=
EXTT0=
EXTT1=
EXTT2=
EXTT3=
EXTT4=
EXTT5=
EXTT6=
EXTT7=
EXTT8=
EXTT9=
EXTT10=
EXTT11=
EXTT12=
EXTT13=
EXTT14=
EXTT15=
EXTT16=
EXTT17=
EXTT18=
EXTT19=
PLAYORDER=
